%TF.GenerationSoftware,KiCad,Pcbnew,9.0.7*%
%TF.CreationDate,2026-01-24T19:25:28+05:30*%
%TF.ProjectId,FluxPad,466c7578-5061-4642-9e6b-696361645f70,rev?*%
%TF.SameCoordinates,Original*%
%TF.FileFunction,Copper,L1,Top*%
%TF.FilePolarity,Positive*%
%FSLAX46Y46*%
G04 Gerber Fmt 4.6, Leading zero omitted, Abs format (unit mm)*
G04 Created by KiCad (PCBNEW 9.0.7) date 2026-01-24 19:25:28*
%MOMM*%
%LPD*%
G01*
G04 APERTURE LIST*
G04 Aperture macros list*
%AMRoundRect*
0 Rectangle with rounded corners*
0 $1 Rounding radius*
0 $2 $3 $4 $5 $6 $7 $8 $9 X,Y pos of 4 corners*
0 Add a 4 corners polygon primitive as box body*
4,1,4,$2,$3,$4,$5,$6,$7,$8,$9,$2,$3,0*
0 Add four circle primitives for the rounded corners*
1,1,$1+$1,$2,$3*
1,1,$1+$1,$4,$5*
1,1,$1+$1,$6,$7*
1,1,$1+$1,$8,$9*
0 Add four rect primitives between the rounded corners*
20,1,$1+$1,$2,$3,$4,$5,0*
20,1,$1+$1,$4,$5,$6,$7,0*
20,1,$1+$1,$6,$7,$8,$9,0*
20,1,$1+$1,$8,$9,$2,$3,0*%
G04 Aperture macros list end*
%TA.AperFunction,ComponentPad*%
%ADD10C,2.200000*%
%TD*%
%TA.AperFunction,ComponentPad*%
%ADD11RoundRect,0.250000X0.550000X0.550000X-0.550000X0.550000X-0.550000X-0.550000X0.550000X-0.550000X0*%
%TD*%
%TA.AperFunction,ComponentPad*%
%ADD12C,1.600000*%
%TD*%
%TA.AperFunction,SMDPad,CuDef*%
%ADD13RoundRect,0.152400X1.063600X0.609600X-1.063600X0.609600X-1.063600X-0.609600X1.063600X-0.609600X0*%
%TD*%
%TA.AperFunction,ComponentPad*%
%ADD14C,1.524000*%
%TD*%
%TA.AperFunction,SMDPad,CuDef*%
%ADD15RoundRect,0.152400X-1.063600X-0.609600X1.063600X-0.609600X1.063600X0.609600X-1.063600X0.609600X0*%
%TD*%
%TA.AperFunction,ComponentPad*%
%ADD16R,1.700000X1.700000*%
%TD*%
%TA.AperFunction,ComponentPad*%
%ADD17O,1.700000X1.700000*%
%TD*%
%TA.AperFunction,ComponentPad*%
%ADD18R,2.000000X2.000000*%
%TD*%
%TA.AperFunction,ComponentPad*%
%ADD19C,2.000000*%
%TD*%
%TA.AperFunction,ComponentPad*%
%ADD20R,3.200000X2.000000*%
%TD*%
%TA.AperFunction,ViaPad*%
%ADD21C,0.600000*%
%TD*%
%TA.AperFunction,Conductor*%
%ADD22C,0.200000*%
%TD*%
G04 APERTURE END LIST*
D10*
%TO.P,SW1,1,1*%
%TO.N,/ROW0*%
X155892500Y-78263700D03*
%TO.P,SW1,2,2*%
%TO.N,Net-(D13-A)*%
X149542500Y-80803700D03*
%TD*%
%TO.P,SW4,1,1*%
%TO.N,/ROW0*%
X213042500Y-78263700D03*
%TO.P,SW4,2,2*%
%TO.N,Net-(D16-A)*%
X206692500Y-80803700D03*
%TD*%
%TO.P,SW7,1,1*%
%TO.N,/ROW1*%
X193992500Y-97313700D03*
%TO.P,SW7,2,2*%
%TO.N,Net-(D19-A)*%
X187642500Y-99853700D03*
%TD*%
D11*
%TO.P,D23,1,K*%
%TO.N,/COL2*%
X195262500Y-111918700D03*
D12*
%TO.P,D23,2,A*%
%TO.N,Net-(D23-A)*%
X187642500Y-111918700D03*
%TD*%
D11*
%TO.P,D13,1,K*%
%TO.N,/COL0*%
X157162500Y-73818700D03*
D12*
%TO.P,D13,2,A*%
%TO.N,Net-(D13-A)*%
X149542500Y-73818700D03*
%TD*%
D10*
%TO.P,SW9,1,1*%
%TO.N,/ROW2*%
X155892500Y-116363700D03*
%TO.P,SW9,2,2*%
%TO.N,Net-(D21-A)*%
X149542500Y-118903700D03*
%TD*%
%TO.P,SW2,1,1*%
%TO.N,/ROW0*%
X174942500Y-78263700D03*
%TO.P,SW2,2,2*%
%TO.N,Net-(D14-A)*%
X168592500Y-80803700D03*
%TD*%
D13*
%TO.P,U1,1,GPIO26/ADC0/A0*%
%TO.N,/ROW0*%
X145399100Y-52969100D03*
D14*
X146234100Y-52969100D03*
D13*
%TO.P,U1,2,GPIO27/ADC1/A1*%
%TO.N,/ROW1*%
X145399100Y-55509100D03*
D14*
X146234100Y-55509100D03*
D13*
%TO.P,U1,3,GPIO28/ADC2/A2*%
%TO.N,/ROW2*%
X145399100Y-58049100D03*
D14*
X146234100Y-58049100D03*
D13*
%TO.P,U1,4,GPIO29/ADC3/A3*%
%TO.N,/COL0*%
X145399100Y-60589100D03*
D14*
X146234100Y-60589100D03*
D13*
%TO.P,U1,5,GPIO6/SDA*%
%TO.N,/SDA*%
X145399100Y-63129100D03*
D14*
X146234100Y-63129100D03*
D13*
%TO.P,U1,6,GPIO7/SCL*%
%TO.N,/SCL*%
X145399100Y-65669100D03*
D14*
X146234100Y-65669100D03*
D13*
%TO.P,U1,7,GPIO0/TX*%
%TO.N,/COL1*%
X145399100Y-68209100D03*
D14*
X146234100Y-68209100D03*
%TO.P,U1,8,GPIO1/RX*%
%TO.N,/COL2*%
X161474100Y-68209100D03*
D15*
X162309100Y-68209100D03*
D14*
%TO.P,U1,9,GPIO2/SCK*%
%TO.N,/COL3*%
X161474100Y-65669100D03*
D15*
X162309100Y-65669100D03*
D14*
%TO.P,U1,10,GPIO4/MISO*%
%TO.N,Net-(U1-GPIO4{slash}MISO)*%
X161474100Y-63129100D03*
D15*
X162309100Y-63129100D03*
D14*
%TO.P,U1,11,GPIO3/MOSI*%
%TO.N,Net-(U1-GPIO3{slash}MOSI)*%
X161474100Y-60589100D03*
D15*
X162309100Y-60589100D03*
D14*
%TO.P,U1,12,3V3*%
%TO.N,+3V3*%
X161474100Y-58049100D03*
D15*
X162309100Y-58049100D03*
D14*
%TO.P,U1,13,GND*%
%TO.N,GND*%
X161474100Y-55509100D03*
D15*
X162309100Y-55509100D03*
D14*
%TO.P,U1,14,VBUS*%
%TO.N,+5V*%
X161474100Y-52969100D03*
D15*
X162309100Y-52969100D03*
%TD*%
D10*
%TO.P,SW10,1,1*%
%TO.N,/ROW2*%
X174942500Y-116363700D03*
%TO.P,SW10,2,2*%
%TO.N,Net-(D22-A)*%
X168592500Y-118903700D03*
%TD*%
D11*
%TO.P,D20,1,K*%
%TO.N,/COL3*%
X214312500Y-92868700D03*
D12*
%TO.P,D20,2,A*%
%TO.N,Net-(D20-A)*%
X206692500Y-92868700D03*
%TD*%
D11*
%TO.P,D21,1,K*%
%TO.N,/COL0*%
X157162500Y-111918700D03*
D12*
%TO.P,D21,2,A*%
%TO.N,Net-(D21-A)*%
X149542500Y-111918700D03*
%TD*%
D10*
%TO.P,SW3,1,1*%
%TO.N,/ROW0*%
X193992500Y-78263700D03*
%TO.P,SW3,2,2*%
%TO.N,Net-(D15-A)*%
X187642500Y-80803700D03*
%TD*%
D11*
%TO.P,D19,1,K*%
%TO.N,/COL2*%
X195262500Y-92868700D03*
D12*
%TO.P,D19,2,A*%
%TO.N,Net-(D19-A)*%
X187642500Y-92868700D03*
%TD*%
D11*
%TO.P,D15,1,K*%
%TO.N,/COL2*%
X195262500Y-73818700D03*
D12*
%TO.P,D15,2,A*%
%TO.N,Net-(D15-A)*%
X187642500Y-73818700D03*
%TD*%
D11*
%TO.P,D16,1,K*%
%TO.N,/COL3*%
X214312500Y-73818700D03*
D12*
%TO.P,D16,2,A*%
%TO.N,Net-(D16-A)*%
X206692500Y-73818700D03*
%TD*%
D11*
%TO.P,D22,1,K*%
%TO.N,/COL1*%
X176212500Y-111918700D03*
D12*
%TO.P,D22,2,A*%
%TO.N,Net-(D22-A)*%
X168592500Y-111918700D03*
%TD*%
D11*
%TO.P,D24,1,K*%
%TO.N,/COL3*%
X214312500Y-111918700D03*
D12*
%TO.P,D24,2,A*%
%TO.N,Net-(D24-A)*%
X206692500Y-111918700D03*
%TD*%
D11*
%TO.P,D18,1,K*%
%TO.N,/COL1*%
X176212500Y-92868700D03*
D12*
%TO.P,D18,2,A*%
%TO.N,Net-(D18-A)*%
X168592500Y-92868700D03*
%TD*%
D10*
%TO.P,SW5,1,1*%
%TO.N,/ROW1*%
X155898600Y-97317600D03*
%TO.P,SW5,2,2*%
%TO.N,Net-(D17-A)*%
X149548600Y-99857600D03*
%TD*%
D16*
%TO.P,DIS1,1,Pin_1*%
%TO.N,GND*%
X200971300Y-55836200D03*
D17*
%TO.P,DIS1,2,Pin_2*%
%TO.N,+3V3*%
X200971300Y-58376200D03*
%TO.P,DIS1,3,Pin_3*%
%TO.N,/SCL*%
X200971300Y-60916200D03*
%TO.P,DIS1,4,Pin_4*%
%TO.N,/SDA*%
X200971300Y-63456200D03*
%TD*%
D11*
%TO.P,D14,1,K*%
%TO.N,/COL1*%
X176212500Y-73818700D03*
D12*
%TO.P,D14,2,A*%
%TO.N,Net-(D14-A)*%
X168592500Y-73818700D03*
%TD*%
D10*
%TO.P,SW6,1,1*%
%TO.N,/ROW1*%
X174917100Y-97333800D03*
%TO.P,SW6,2,2*%
%TO.N,Net-(D18-A)*%
X168567100Y-99873800D03*
%TD*%
%TO.P,SW8,1,1*%
%TO.N,/ROW1*%
X213042500Y-97313700D03*
%TO.P,SW8,2,2*%
%TO.N,Net-(D20-A)*%
X206692500Y-99853700D03*
%TD*%
%TO.P,SW11,1,1*%
%TO.N,/ROW2*%
X193992500Y-116363700D03*
%TO.P,SW11,2,2*%
%TO.N,Net-(D23-A)*%
X187642500Y-118903700D03*
%TD*%
D18*
%TO.P,SW13,A,A*%
%TO.N,Net-(U1-GPIO4{slash}MISO)*%
X204681300Y-57031200D03*
D19*
%TO.P,SW13,B,B*%
%TO.N,Net-(U1-GPIO3{slash}MOSI)*%
X204681300Y-62031200D03*
%TO.P,SW13,C,C*%
%TO.N,GND*%
X204681300Y-59531200D03*
D20*
%TO.P,SW13,MP*%
%TO.N,N/C*%
X212181300Y-53931200D03*
X212181300Y-65131200D03*
D19*
%TO.P,SW13,S1,S1*%
%TO.N,unconnected-(SW13-PadS1)*%
X219181300Y-62031200D03*
%TO.P,SW13,S2,S2*%
%TO.N,unconnected-(SW13-PadS2)*%
X219181300Y-57031200D03*
%TD*%
D11*
%TO.P,D17,1,K*%
%TO.N,/COL0*%
X157162500Y-92868700D03*
D12*
%TO.P,D17,2,A*%
%TO.N,Net-(D17-A)*%
X149542500Y-92868700D03*
%TD*%
D10*
%TO.P,SW12,1,1*%
%TO.N,/ROW2*%
X213042500Y-116363700D03*
%TO.P,SW12,2,2*%
%TO.N,Net-(D24-A)*%
X206692500Y-118903700D03*
%TD*%
D21*
%TO.N,/SCL*%
X196756000Y-66533300D03*
%TD*%
D22*
%TO.N,+5V*%
X161474000Y-52969100D02*
X162309000Y-52969100D01*
X162309100Y-52969100D02*
X162309000Y-52969100D01*
%TO.N,GND*%
X161474000Y-55509100D02*
X162309000Y-55509100D01*
X200971000Y-55836200D02*
X200971300Y-55836200D01*
X202123000Y-56972900D02*
X204681000Y-59531200D01*
X202123000Y-55836200D02*
X202123000Y-56972900D01*
X204681300Y-59531200D02*
X204681000Y-59531200D01*
X200971300Y-55836200D02*
X202123000Y-55836200D01*
X162309100Y-55509100D02*
X162309000Y-55509100D01*
%TO.N,Net-(U1-GPIO4{slash}MISO)*%
X162309000Y-63129100D02*
X161474000Y-63129100D01*
X162309100Y-63129100D02*
X162309000Y-63129100D01*
%TO.N,Net-(U1-GPIO3{slash}MOSI)*%
X162309100Y-60589100D02*
X162309000Y-60589100D01*
X162309000Y-60589100D02*
X161474000Y-60589100D01*
%TO.N,/COL0*%
X158522500Y-110558500D02*
X157162500Y-111918500D01*
X157309000Y-73965300D02*
X157235500Y-73892000D01*
X157162500Y-92868700D02*
X157162000Y-92868700D01*
X146234100Y-60589100D02*
X146234000Y-60589100D01*
X158522500Y-110558500D02*
X159883000Y-109198000D01*
X157235500Y-73892000D02*
X157162000Y-73818700D01*
X156991000Y-92697400D02*
X156991000Y-79705000D01*
X145399000Y-60589100D02*
X146234000Y-60589100D01*
X159883000Y-95589400D02*
X157162000Y-92868700D01*
X157162500Y-111918500D02*
X157162500Y-111918700D01*
X156991000Y-79705000D02*
X157309000Y-79387100D01*
X157235500Y-73892000D02*
X157162500Y-73819000D01*
X157162000Y-92868700D02*
X156991000Y-92697400D01*
X159883000Y-109198000D02*
X159883000Y-95589400D01*
X157309000Y-79387100D02*
X157309000Y-73965300D01*
X157162500Y-73819000D02*
X157162500Y-73818700D01*
X157162000Y-111919000D02*
X158522500Y-110558500D01*
%TO.N,Net-(D13-A)*%
X149542000Y-77311200D02*
X149542000Y-73818700D01*
X149542500Y-80803700D02*
X149542000Y-80803700D01*
X149542000Y-77311200D02*
X149542500Y-77310700D01*
X149542500Y-77310700D02*
X149542500Y-73818700D01*
X149542000Y-80803700D02*
X149542000Y-77311200D01*
%TO.N,/COL1*%
X176032000Y-111738000D02*
X176032000Y-100127000D01*
X176041000Y-79705000D02*
X176041000Y-92697400D01*
X176212500Y-111918700D02*
X176212300Y-111918700D01*
X176341000Y-92997500D02*
X176212000Y-92868700D01*
X176391000Y-79355000D02*
X176041000Y-79705000D01*
X176212500Y-73818700D02*
X176301500Y-73907700D01*
X176391000Y-73997400D02*
X176391000Y-79355000D01*
X176212300Y-111918700D02*
X176212000Y-111919000D01*
X176041000Y-92697400D02*
X176212000Y-92868700D01*
X146234100Y-68209100D02*
X146234000Y-68209100D01*
X176212000Y-111919000D02*
X176032000Y-111738000D01*
X176301500Y-73907700D02*
X176301500Y-73908000D01*
X146234000Y-68209100D02*
X145399000Y-68209100D01*
X176301500Y-73908000D02*
X176391000Y-73997400D01*
X176212000Y-73818700D02*
X176301500Y-73908000D01*
X176212500Y-92868700D02*
X176212000Y-92868700D01*
X176032000Y-100127000D02*
X176341000Y-99817400D01*
X176341000Y-99817400D02*
X176341000Y-92997500D01*
%TO.N,Net-(D14-A)*%
X168592500Y-77310700D02*
X168592500Y-73818700D01*
X168592000Y-77311200D02*
X168592000Y-79057400D01*
X168592000Y-79057400D02*
X168592000Y-80803700D01*
X168592000Y-73818700D02*
X168592000Y-77311200D01*
X168592000Y-77311200D02*
X168592500Y-77310700D01*
X168592500Y-79057900D02*
X168592500Y-80803700D01*
X168592000Y-79057400D02*
X168592500Y-79057900D01*
%TO.N,Net-(D15-A)*%
X187642000Y-77311200D02*
X187642000Y-80803700D01*
X187642500Y-77310700D02*
X187642500Y-73818700D01*
X187642000Y-73818700D02*
X187642000Y-77311200D01*
X187642500Y-80803700D02*
X187642000Y-80803700D01*
X187642000Y-77311200D02*
X187642500Y-77310700D01*
%TO.N,/COL2*%
X195451000Y-93057100D02*
X195451000Y-98395300D01*
X195262000Y-73818700D02*
X195441000Y-73997400D01*
X195441000Y-79355000D02*
X195091000Y-79705000D01*
X195091000Y-111747000D02*
X195262000Y-111919000D01*
X195091000Y-92697400D02*
X195262000Y-92868700D01*
X162309100Y-68209100D02*
X162309000Y-68209100D01*
X195091000Y-79705000D02*
X195091000Y-92697400D01*
X195262000Y-92868700D02*
X195451000Y-93057100D01*
X195262300Y-111918700D02*
X195262000Y-111919000D01*
X161474000Y-68209100D02*
X162309000Y-68209100D01*
X195091000Y-98755000D02*
X195091000Y-111747000D01*
X195262500Y-92868700D02*
X195262000Y-92868700D01*
X195441000Y-73997400D02*
X195441000Y-79355000D01*
X195262500Y-111918700D02*
X195262300Y-111918700D01*
X195451000Y-98395300D02*
X195091000Y-98755000D01*
%TO.N,Net-(D16-A)*%
X206692000Y-77311200D02*
X206692000Y-79057400D01*
X206692000Y-77311200D02*
X206692500Y-77310700D01*
X206692000Y-73818700D02*
X206692000Y-77311200D01*
X206692000Y-79057400D02*
X206692500Y-79057900D01*
X206692000Y-79057400D02*
X206692000Y-80803700D01*
X206692500Y-77310700D02*
X206692500Y-73818700D01*
X206692500Y-79057900D02*
X206692500Y-80803700D01*
%TO.N,/COL3*%
X214312000Y-73818700D02*
X214312300Y-73818900D01*
X214312300Y-73818900D02*
X214481000Y-73987400D01*
X214472000Y-99001200D02*
X214472000Y-93028500D01*
X214481000Y-79365000D02*
X214141000Y-79705000D01*
X162309000Y-65669100D02*
X161474000Y-65669100D01*
X214481000Y-73987400D02*
X214481000Y-79365000D01*
X214141000Y-111747000D02*
X214141000Y-99332300D01*
X214312300Y-111918700D02*
X214312000Y-111919000D01*
X214312500Y-111918700D02*
X214312300Y-111918700D01*
X214141000Y-79705000D02*
X214141000Y-92697400D01*
X214312500Y-92868700D02*
X214312000Y-92868700D01*
X214312500Y-73818700D02*
X214312300Y-73818900D01*
X214141000Y-92697400D02*
X214312000Y-92868700D01*
X214312000Y-111919000D02*
X214141000Y-111747000D01*
X214472000Y-93028500D02*
X214312000Y-92868700D01*
X214141000Y-99332300D02*
X214472000Y-99001200D01*
X162309100Y-65669100D02*
X162309000Y-65669100D01*
%TO.N,Net-(D17-A)*%
X149542000Y-92868700D02*
X149549000Y-92874800D01*
X149548600Y-99847800D02*
X149549000Y-99847400D01*
X149548600Y-99857600D02*
X149548600Y-99847800D01*
X149549000Y-92874800D02*
X149549000Y-99847400D01*
X149549000Y-99847400D02*
X149549000Y-99857600D01*
%TO.N,Net-(D18-A)*%
X168567000Y-99863600D02*
X168567000Y-99873800D01*
X168579800Y-92881400D02*
X168592500Y-92868700D01*
X168579500Y-92881400D02*
X168567000Y-92894100D01*
X168567000Y-92894100D02*
X168567000Y-99863600D01*
X168567100Y-99863600D02*
X168567000Y-99863600D01*
X168579500Y-92881400D02*
X168579800Y-92881400D01*
X168567100Y-99873800D02*
X168567100Y-99863600D01*
X168592000Y-92868700D02*
X168579500Y-92881400D01*
%TO.N,Net-(D19-A)*%
X187642000Y-99853700D02*
X187642000Y-96361200D01*
X187642500Y-99853700D02*
X187642000Y-99853700D01*
X187642500Y-96360700D02*
X187642500Y-92868700D01*
X187642000Y-96361200D02*
X187642500Y-96360700D01*
X187642000Y-96361200D02*
X187642000Y-92868700D01*
%TO.N,Net-(D20-A)*%
X206692000Y-92868700D02*
X206692000Y-99853700D01*
X206692500Y-99853700D02*
X206692000Y-99853700D01*
X206692500Y-92868700D02*
X206692000Y-92868700D01*
%TO.N,Net-(D21-A)*%
X149542500Y-111918700D02*
X149542300Y-111918700D01*
X149542000Y-111919000D02*
X149542000Y-115411500D01*
X149542000Y-115411500D02*
X149542500Y-115412000D01*
X149542000Y-115411500D02*
X149542000Y-118904000D01*
X149542300Y-111918700D02*
X149542000Y-111919000D01*
X149542500Y-115412000D02*
X149542500Y-118903700D01*
%TO.N,Net-(D22-A)*%
X168592000Y-115411500D02*
X168592500Y-115412000D01*
X168592500Y-111918700D02*
X168592300Y-111918700D01*
X168592000Y-115411500D02*
X168592000Y-111919000D01*
X168592500Y-115412000D02*
X168592500Y-118903700D01*
X168592000Y-118904000D02*
X168592000Y-115411500D01*
X168592300Y-111918700D02*
X168592000Y-111919000D01*
%TO.N,Net-(D23-A)*%
X187642000Y-113665200D02*
X187642500Y-113664700D01*
X187642000Y-115411500D02*
X187642000Y-118904000D01*
X187642500Y-115412000D02*
X187642500Y-118903700D01*
X187642500Y-113664700D02*
X187642500Y-111918700D01*
X187642000Y-113665200D02*
X187642000Y-115411500D01*
X187642000Y-111919000D02*
X187642000Y-113665200D01*
X187642000Y-115411500D02*
X187642500Y-115412000D01*
%TO.N,Net-(D24-A)*%
X206692000Y-118904000D02*
X206692000Y-115411500D01*
X206692000Y-113665200D02*
X206692500Y-113664700D01*
X206692000Y-115411500D02*
X206692000Y-113665200D01*
X206692000Y-113665200D02*
X206692000Y-111919000D01*
X206692500Y-113664700D02*
X206692500Y-111918700D01*
X206692000Y-115411500D02*
X206692500Y-115412000D01*
X206692500Y-115412000D02*
X206692500Y-118903700D01*
%TO.N,/SDA*%
X146234100Y-63129100D02*
X146234000Y-63129100D01*
X145399000Y-63129100D02*
X146234000Y-63129100D01*
%TO.N,/SCL*%
X200971300Y-60916200D02*
X200971000Y-60916200D01*
X196756000Y-65995100D02*
X196756000Y-66533300D01*
X200683000Y-62067900D02*
X196756000Y-65995100D01*
X200971000Y-62067900D02*
X200683000Y-62067900D01*
X200971000Y-60916200D02*
X200971000Y-62067900D01*
X146234000Y-65669100D02*
X145399000Y-65669100D01*
X146234100Y-65669100D02*
X146234000Y-65669100D01*
%TO.N,+3V3*%
X162309000Y-58049100D02*
X161474000Y-58049100D01*
X162309100Y-58049100D02*
X162309000Y-58049100D01*
%TO.N,/ROW0*%
X145399000Y-52969100D02*
X146234000Y-52969100D01*
X155892000Y-62627500D02*
X146234000Y-52969100D01*
X155892000Y-78263700D02*
X155892000Y-62627500D01*
X146234100Y-52969100D02*
X146234000Y-52969100D01*
%TO.N,/ROW1*%
X146234000Y-55509100D02*
X153677000Y-62952400D01*
X146234000Y-55509100D02*
X145399000Y-55509100D01*
X146234100Y-55509100D02*
X146234000Y-55509100D01*
X155982000Y-80996300D02*
X155982000Y-97234200D01*
X155898600Y-97317600D02*
X155899000Y-97317600D01*
X155982000Y-97234200D02*
X155899000Y-97317600D01*
X153677000Y-62952400D02*
X153677000Y-78691700D01*
X153677000Y-78691700D02*
X155982000Y-80996300D01*
%TO.N,/ROW2*%
X146234000Y-58049100D02*
X147345000Y-59160300D01*
X146234100Y-58049100D02*
X146234000Y-58049100D01*
X155892500Y-116363700D02*
X155892300Y-116363700D01*
X155892300Y-116363700D02*
X155892000Y-116364000D01*
X146863000Y-107334000D02*
X155892000Y-116364000D01*
X147345000Y-59160300D02*
X147345000Y-71450600D01*
X145399000Y-58049100D02*
X146234000Y-58049100D01*
X146863000Y-71933000D02*
X146863000Y-107334000D01*
X147345000Y-71450600D02*
X146863000Y-71933000D01*
%TD*%
M02*
