%TF.GenerationSoftware,KiCad,Pcbnew,9.0.7*%
%TF.CreationDate,2026-01-24T19:25:28+05:30*%
%TF.ProjectId,FluxPad,466c7578-5061-4642-9e6b-696361645f70,rev?*%
%TF.SameCoordinates,Original*%
%TF.FileFunction,Copper,L2,Bot*%
%TF.FilePolarity,Positive*%
%FSLAX46Y46*%
G04 Gerber Fmt 4.6, Leading zero omitted, Abs format (unit mm)*
G04 Created by KiCad (PCBNEW 9.0.7) date 2026-01-24 19:25:28*
%MOMM*%
%LPD*%
G01*
G04 APERTURE LIST*
G04 Aperture macros list*
%AMRoundRect*
0 Rectangle with rounded corners*
0 $1 Rounding radius*
0 $2 $3 $4 $5 $6 $7 $8 $9 X,Y pos of 4 corners*
0 Add a 4 corners polygon primitive as box body*
4,1,4,$2,$3,$4,$5,$6,$7,$8,$9,$2,$3,0*
0 Add four circle primitives for the rounded corners*
1,1,$1+$1,$2,$3*
1,1,$1+$1,$4,$5*
1,1,$1+$1,$6,$7*
1,1,$1+$1,$8,$9*
0 Add four rect primitives between the rounded corners*
20,1,$1+$1,$2,$3,$4,$5,0*
20,1,$1+$1,$4,$5,$6,$7,0*
20,1,$1+$1,$6,$7,$8,$9,0*
20,1,$1+$1,$8,$9,$2,$3,0*%
G04 Aperture macros list end*
%TA.AperFunction,ComponentPad*%
%ADD10C,2.200000*%
%TD*%
%TA.AperFunction,ComponentPad*%
%ADD11RoundRect,0.250000X0.550000X0.550000X-0.550000X0.550000X-0.550000X-0.550000X0.550000X-0.550000X0*%
%TD*%
%TA.AperFunction,ComponentPad*%
%ADD12C,1.600000*%
%TD*%
%TA.AperFunction,ComponentPad*%
%ADD13C,1.524000*%
%TD*%
%TA.AperFunction,ComponentPad*%
%ADD14R,1.700000X1.700000*%
%TD*%
%TA.AperFunction,ComponentPad*%
%ADD15O,1.700000X1.700000*%
%TD*%
%TA.AperFunction,ComponentPad*%
%ADD16R,2.000000X2.000000*%
%TD*%
%TA.AperFunction,ComponentPad*%
%ADD17C,2.000000*%
%TD*%
%TA.AperFunction,ComponentPad*%
%ADD18R,3.200000X2.000000*%
%TD*%
%TA.AperFunction,ViaPad*%
%ADD19C,0.600000*%
%TD*%
%TA.AperFunction,Conductor*%
%ADD20C,0.200000*%
%TD*%
G04 APERTURE END LIST*
D10*
%TO.P,SW1,1,1*%
%TO.N,/ROW0*%
X155892500Y-78263700D03*
%TO.P,SW1,2,2*%
%TO.N,Net-(D13-A)*%
X149542500Y-80803700D03*
%TD*%
%TO.P,SW4,1,1*%
%TO.N,/ROW0*%
X213042500Y-78263700D03*
%TO.P,SW4,2,2*%
%TO.N,Net-(D16-A)*%
X206692500Y-80803700D03*
%TD*%
%TO.P,SW7,1,1*%
%TO.N,/ROW1*%
X193992500Y-97313700D03*
%TO.P,SW7,2,2*%
%TO.N,Net-(D19-A)*%
X187642500Y-99853700D03*
%TD*%
D11*
%TO.P,D23,1,K*%
%TO.N,/COL2*%
X195262500Y-111918700D03*
D12*
%TO.P,D23,2,A*%
%TO.N,Net-(D23-A)*%
X187642500Y-111918700D03*
%TD*%
D11*
%TO.P,D13,1,K*%
%TO.N,/COL0*%
X157162500Y-73818700D03*
D12*
%TO.P,D13,2,A*%
%TO.N,Net-(D13-A)*%
X149542500Y-73818700D03*
%TD*%
D10*
%TO.P,SW9,1,1*%
%TO.N,/ROW2*%
X155892500Y-116363700D03*
%TO.P,SW9,2,2*%
%TO.N,Net-(D21-A)*%
X149542500Y-118903700D03*
%TD*%
%TO.P,SW2,1,1*%
%TO.N,/ROW0*%
X174942500Y-78263700D03*
%TO.P,SW2,2,2*%
%TO.N,Net-(D14-A)*%
X168592500Y-80803700D03*
%TD*%
D13*
%TO.P,U1,1,GPIO26/ADC0/A0*%
%TO.N,/ROW0*%
X146234100Y-52969100D03*
%TO.P,U1,2,GPIO27/ADC1/A1*%
%TO.N,/ROW1*%
X146234100Y-55509100D03*
%TO.P,U1,3,GPIO28/ADC2/A2*%
%TO.N,/ROW2*%
X146234100Y-58049100D03*
%TO.P,U1,4,GPIO29/ADC3/A3*%
%TO.N,/COL0*%
X146234100Y-60589100D03*
%TO.P,U1,5,GPIO6/SDA*%
%TO.N,/SDA*%
X146234100Y-63129100D03*
%TO.P,U1,6,GPIO7/SCL*%
%TO.N,/SCL*%
X146234100Y-65669100D03*
%TO.P,U1,7,GPIO0/TX*%
%TO.N,/COL1*%
X146234100Y-68209100D03*
%TO.P,U1,8,GPIO1/RX*%
%TO.N,/COL2*%
X161474100Y-68209100D03*
%TO.P,U1,9,GPIO2/SCK*%
%TO.N,/COL3*%
X161474100Y-65669100D03*
%TO.P,U1,10,GPIO4/MISO*%
%TO.N,Net-(U1-GPIO4{slash}MISO)*%
X161474100Y-63129100D03*
%TO.P,U1,11,GPIO3/MOSI*%
%TO.N,Net-(U1-GPIO3{slash}MOSI)*%
X161474100Y-60589100D03*
%TO.P,U1,12,3V3*%
%TO.N,+3V3*%
X161474100Y-58049100D03*
%TO.P,U1,13,GND*%
%TO.N,GND*%
X161474100Y-55509100D03*
%TO.P,U1,14,VBUS*%
%TO.N,+5V*%
X161474100Y-52969100D03*
%TD*%
D10*
%TO.P,SW10,1,1*%
%TO.N,/ROW2*%
X174942500Y-116363700D03*
%TO.P,SW10,2,2*%
%TO.N,Net-(D22-A)*%
X168592500Y-118903700D03*
%TD*%
D11*
%TO.P,D20,1,K*%
%TO.N,/COL3*%
X214312500Y-92868700D03*
D12*
%TO.P,D20,2,A*%
%TO.N,Net-(D20-A)*%
X206692500Y-92868700D03*
%TD*%
D11*
%TO.P,D21,1,K*%
%TO.N,/COL0*%
X157162500Y-111918700D03*
D12*
%TO.P,D21,2,A*%
%TO.N,Net-(D21-A)*%
X149542500Y-111918700D03*
%TD*%
D10*
%TO.P,SW3,1,1*%
%TO.N,/ROW0*%
X193992500Y-78263700D03*
%TO.P,SW3,2,2*%
%TO.N,Net-(D15-A)*%
X187642500Y-80803700D03*
%TD*%
D11*
%TO.P,D19,1,K*%
%TO.N,/COL2*%
X195262500Y-92868700D03*
D12*
%TO.P,D19,2,A*%
%TO.N,Net-(D19-A)*%
X187642500Y-92868700D03*
%TD*%
D11*
%TO.P,D15,1,K*%
%TO.N,/COL2*%
X195262500Y-73818700D03*
D12*
%TO.P,D15,2,A*%
%TO.N,Net-(D15-A)*%
X187642500Y-73818700D03*
%TD*%
D11*
%TO.P,D16,1,K*%
%TO.N,/COL3*%
X214312500Y-73818700D03*
D12*
%TO.P,D16,2,A*%
%TO.N,Net-(D16-A)*%
X206692500Y-73818700D03*
%TD*%
D11*
%TO.P,D22,1,K*%
%TO.N,/COL1*%
X176212500Y-111918700D03*
D12*
%TO.P,D22,2,A*%
%TO.N,Net-(D22-A)*%
X168592500Y-111918700D03*
%TD*%
D11*
%TO.P,D24,1,K*%
%TO.N,/COL3*%
X214312500Y-111918700D03*
D12*
%TO.P,D24,2,A*%
%TO.N,Net-(D24-A)*%
X206692500Y-111918700D03*
%TD*%
D11*
%TO.P,D18,1,K*%
%TO.N,/COL1*%
X176212500Y-92868700D03*
D12*
%TO.P,D18,2,A*%
%TO.N,Net-(D18-A)*%
X168592500Y-92868700D03*
%TD*%
D10*
%TO.P,SW5,1,1*%
%TO.N,/ROW1*%
X155898600Y-97317600D03*
%TO.P,SW5,2,2*%
%TO.N,Net-(D17-A)*%
X149548600Y-99857600D03*
%TD*%
D14*
%TO.P,DIS1,1,Pin_1*%
%TO.N,GND*%
X200971300Y-55836200D03*
D15*
%TO.P,DIS1,2,Pin_2*%
%TO.N,+3V3*%
X200971300Y-58376200D03*
%TO.P,DIS1,3,Pin_3*%
%TO.N,/SCL*%
X200971300Y-60916200D03*
%TO.P,DIS1,4,Pin_4*%
%TO.N,/SDA*%
X200971300Y-63456200D03*
%TD*%
D11*
%TO.P,D14,1,K*%
%TO.N,/COL1*%
X176212500Y-73818700D03*
D12*
%TO.P,D14,2,A*%
%TO.N,Net-(D14-A)*%
X168592500Y-73818700D03*
%TD*%
D10*
%TO.P,SW6,1,1*%
%TO.N,/ROW1*%
X174917100Y-97333800D03*
%TO.P,SW6,2,2*%
%TO.N,Net-(D18-A)*%
X168567100Y-99873800D03*
%TD*%
%TO.P,SW8,1,1*%
%TO.N,/ROW1*%
X213042500Y-97313700D03*
%TO.P,SW8,2,2*%
%TO.N,Net-(D20-A)*%
X206692500Y-99853700D03*
%TD*%
%TO.P,SW11,1,1*%
%TO.N,/ROW2*%
X193992500Y-116363700D03*
%TO.P,SW11,2,2*%
%TO.N,Net-(D23-A)*%
X187642500Y-118903700D03*
%TD*%
D16*
%TO.P,SW13,A,A*%
%TO.N,Net-(U1-GPIO4{slash}MISO)*%
X204681300Y-57031200D03*
D17*
%TO.P,SW13,B,B*%
%TO.N,Net-(U1-GPIO3{slash}MOSI)*%
X204681300Y-62031200D03*
%TO.P,SW13,C,C*%
%TO.N,GND*%
X204681300Y-59531200D03*
D18*
%TO.P,SW13,MP*%
%TO.N,N/C*%
X212181300Y-53931200D03*
X212181300Y-65131200D03*
D17*
%TO.P,SW13,S1,S1*%
%TO.N,unconnected-(SW13-PadS1)*%
X219181300Y-62031200D03*
%TO.P,SW13,S2,S2*%
%TO.N,unconnected-(SW13-PadS2)*%
X219181300Y-57031200D03*
%TD*%
D11*
%TO.P,D17,1,K*%
%TO.N,/COL0*%
X157162500Y-92868700D03*
D12*
%TO.P,D17,2,A*%
%TO.N,Net-(D17-A)*%
X149542500Y-92868700D03*
%TD*%
D10*
%TO.P,SW12,1,1*%
%TO.N,/ROW2*%
X213042500Y-116363700D03*
%TO.P,SW12,2,2*%
%TO.N,Net-(D24-A)*%
X206692500Y-118903700D03*
%TD*%
D19*
%TO.N,/SCL*%
X196756000Y-66533300D03*
%TD*%
D20*
%TO.N,GND*%
X200971000Y-55836200D02*
X199820000Y-55836200D01*
X200971300Y-55836200D02*
X200971000Y-55836200D01*
X199492000Y-55509100D02*
X161474100Y-55509100D01*
X161474100Y-55509100D02*
X161474000Y-55509100D01*
X199820000Y-55836200D02*
X199492000Y-55509100D01*
%TO.N,Net-(U1-GPIO4{slash}MISO)*%
X203380000Y-57031200D02*
X203380000Y-57600700D01*
X204681300Y-57031200D02*
X204681000Y-57031200D01*
X163925000Y-59564400D02*
X163864000Y-59503100D01*
X201416000Y-59564400D02*
X163925000Y-59564400D01*
X163864000Y-59503100D02*
X161041000Y-59503100D01*
X203380000Y-57600700D02*
X201416000Y-59564400D01*
X161041000Y-59503100D02*
X160388000Y-60156300D01*
X160388000Y-62043200D02*
X161474000Y-63129100D01*
X160388000Y-60156300D02*
X160388000Y-62043200D01*
X161474100Y-63129100D02*
X161474000Y-63129100D01*
X204681000Y-57031200D02*
X203380000Y-57031200D01*
%TO.N,Net-(U1-GPIO3{slash}MOSI)*%
X204681300Y-62031200D02*
X204681000Y-62031200D01*
X161474100Y-60589200D02*
X161474100Y-60589100D01*
X162979000Y-62094100D02*
X162226500Y-61341600D01*
X162226500Y-61341600D02*
X161474100Y-60589200D01*
X204618000Y-62094100D02*
X162979000Y-62094100D01*
X162226500Y-61341600D02*
X161474000Y-60589100D01*
X204681000Y-62031200D02*
X204618000Y-62094100D01*
%TO.N,/COL0*%
X157162500Y-73818700D02*
X157162000Y-73818700D01*
X145475000Y-61348300D02*
X146234000Y-60589100D01*
X145475000Y-61348300D02*
X146234100Y-60589200D01*
X144716000Y-68283600D02*
X144716000Y-62107500D01*
X157162000Y-73818700D02*
X154936000Y-71592600D01*
X148025000Y-71592600D02*
X144716000Y-68283600D01*
X146234100Y-60589200D02*
X146234100Y-60589100D01*
X154936000Y-71592600D02*
X148025000Y-71592600D01*
X144716000Y-62107500D02*
X145475000Y-61348300D01*
%TO.N,/COL1*%
X173585000Y-71190900D02*
X149216000Y-71190900D01*
X176212000Y-73818700D02*
X173585000Y-71190900D01*
X176212500Y-73818700D02*
X176212000Y-73818700D01*
X149216000Y-71190900D02*
X146234000Y-68209100D01*
%TO.N,/COL2*%
X192457500Y-71013900D02*
X192457700Y-71013900D01*
X192457500Y-71013900D02*
X195262000Y-73818700D01*
X161474000Y-68209100D02*
X161474100Y-68209100D01*
X189653000Y-68209100D02*
X192457500Y-71013900D01*
X161474100Y-68209100D02*
X189653000Y-68209100D01*
X192457700Y-71013900D02*
X195262500Y-73818700D01*
%TO.N,/COL3*%
X161474100Y-65669100D02*
X161474000Y-65669100D01*
X214312000Y-73818700D02*
X206163000Y-65669100D01*
X206163000Y-65669100D02*
X161474100Y-65669100D01*
X214312500Y-73818700D02*
X214312000Y-73818700D01*
%TO.N,/SDA*%
X199054000Y-64222300D02*
X147327000Y-64222300D01*
X199820000Y-63456200D02*
X199054000Y-64222300D01*
X200971300Y-63456200D02*
X200971000Y-63456200D01*
X200971000Y-63456200D02*
X199820000Y-63456200D01*
X146780500Y-63675700D02*
X146234000Y-63129100D01*
X147327000Y-64222300D02*
X146780500Y-63675700D01*
X146780500Y-63675700D02*
X146234100Y-63129300D01*
X146234100Y-63129300D02*
X146234100Y-63129100D01*
%TO.N,/SCL*%
X196553000Y-66736200D02*
X147301000Y-66736200D01*
X147301000Y-66736200D02*
X146234000Y-65669100D01*
X196756000Y-66533300D02*
X196553000Y-66736200D01*
%TO.N,+3V3*%
X200971300Y-58376200D02*
X200971000Y-58376200D01*
X161637500Y-58212600D02*
X161474000Y-58049100D01*
X161801000Y-58376200D02*
X161637500Y-58212600D01*
X161637500Y-58212500D02*
X161637500Y-58212600D01*
X161474100Y-58049100D02*
X161637500Y-58212500D01*
X200971000Y-58376200D02*
X161801000Y-58376200D01*
%TO.N,/ROW0*%
X174942500Y-78263700D02*
X174942000Y-78263700D01*
X213042500Y-78263700D02*
X213042000Y-78263700D01*
X155892000Y-78263700D02*
X174942000Y-78263700D01*
X174153000Y-78263700D02*
X213042000Y-78263700D01*
%TO.N,/ROW1*%
X193992500Y-97313700D02*
X193992000Y-97313700D01*
X213042500Y-97313700D02*
X213042000Y-97313700D01*
X213042000Y-97313700D02*
X193992000Y-97313700D01*
X155899000Y-97317600D02*
X174901000Y-97317600D01*
X174901000Y-97317600D02*
X174917000Y-97333800D01*
X174917100Y-97333800D02*
X174917000Y-97333800D01*
X174937000Y-97313700D02*
X174917000Y-97333800D01*
X193992000Y-97313700D02*
X174937000Y-97313700D01*
%TO.N,/ROW2*%
X174942300Y-116363700D02*
X174942000Y-116364000D01*
X193992800Y-116364000D02*
X193992500Y-116363700D01*
X174942500Y-116363700D02*
X174942300Y-116363700D01*
X197167500Y-116364000D02*
X193992800Y-116364000D01*
X155892000Y-116364000D02*
X161642300Y-116364000D01*
X161642300Y-116364000D02*
X174942000Y-116364000D01*
X161642300Y-116364000D02*
X155892800Y-116364000D01*
X197167500Y-116364000D02*
X174942000Y-116364000D01*
X155892800Y-116364000D02*
X155892500Y-116363700D01*
X213042500Y-116363700D02*
X213042300Y-116363700D01*
X213042000Y-116364000D02*
X197167500Y-116364000D01*
X213042300Y-116363700D02*
X213042000Y-116364000D01*
%TD*%
M02*
