M48
; DRILL file {KiCad 9.0.7} date 2026-01-24T19:26:05+0530
; FORMAT={-:-/ absolute / metric / decimal}
; #@! TF.CreationDate,2026-01-24T19:26:05+05:30
; #@! TF.GenerationSoftware,Kicad,Pcbnew,9.0.7
; #@! TF.FileFunction,Plated,1,2,PTH
FMAT,2
METRIC
; #@! TA.AperFunction,Plated,PTH,ViaDrill
T1C0.300
; #@! TA.AperFunction,Plated,PTH,ComponentDrill
T2C0.800
; #@! TA.AperFunction,Plated,PTH,ComponentDrill
T3C0.889
; #@! TA.AperFunction,Plated,PTH,ComponentDrill
T4C1.000
; #@! TA.AperFunction,Plated,PTH,ComponentDrill
T5C1.500
%
G90
G05
T1
X196.756Y-66.533
T2
X149.542Y-73.819
X149.542Y-92.869
X149.542Y-111.919
X157.162Y-73.819
X157.162Y-92.869
X157.162Y-111.919
X168.593Y-73.819
X168.593Y-92.869
X168.593Y-111.919
X176.213Y-73.819
X176.213Y-92.869
X176.213Y-111.919
X187.642Y-73.819
X187.642Y-92.869
X187.642Y-111.919
X195.262Y-73.819
X195.262Y-92.869
X195.262Y-111.919
X206.692Y-73.819
X206.692Y-92.869
X206.692Y-111.919
X214.312Y-73.819
X214.312Y-92.869
X214.312Y-111.919
T3
X146.234Y-52.969
X146.234Y-55.509
X146.234Y-58.049
X146.234Y-60.589
X146.234Y-63.129
X146.234Y-65.669
X146.234Y-68.209
X161.474Y-52.969
X161.474Y-55.509
X161.474Y-58.049
X161.474Y-60.589
X161.474Y-63.129
X161.474Y-65.669
X161.474Y-68.209
T4
X200.971Y-55.836
X200.971Y-58.376
X200.971Y-60.916
X200.971Y-63.456
X204.681Y-57.031
X204.681Y-59.531
X204.681Y-62.031
X219.181Y-57.031
X219.181Y-62.031
T5
X149.542Y-80.804
X149.542Y-118.904
X149.549Y-99.858
X155.892Y-78.264
X155.892Y-116.364
X155.899Y-97.318
X168.567Y-99.874
X168.593Y-80.804
X168.593Y-118.904
X174.917Y-97.334
X174.942Y-78.264
X174.942Y-116.364
X187.642Y-80.804
X187.642Y-99.854
X187.642Y-118.904
X193.992Y-78.264
X193.992Y-97.314
X193.992Y-116.364
X206.692Y-80.804
X206.692Y-99.854
X206.692Y-118.904
X213.042Y-78.264
X213.042Y-97.314
X213.042Y-116.364
T5
X211.531Y-53.931G85X212.831Y-53.931
G05
X211.531Y-65.131G85X212.831Y-65.131
G05
M30
