M48
; DRILL file {KiCad 9.0.7} date 2026-01-24T19:26:05+0530
; FORMAT={-:-/ absolute / metric / decimal}
; #@! TF.CreationDate,2026-01-24T19:26:05+05:30
; #@! TF.GenerationSoftware,Kicad,Pcbnew,9.0.7
; #@! TF.FileFunction,NonPlated,1,2,NPTH
FMAT,2
METRIC
; #@! TA.AperFunction,NonPlated,NPTH,ComponentDrill
T1C1.700
; #@! TA.AperFunction,NonPlated,NPTH,ComponentDrill
T2C4.000
%
G90
G05
T1
X148.272Y-83.344
X148.272Y-121.444
X148.279Y-102.398
X158.433Y-83.344
X158.433Y-121.444
X158.439Y-102.398
X167.297Y-102.414
X167.322Y-83.344
X167.322Y-121.444
X177.457Y-102.414
X177.482Y-83.344
X177.482Y-121.444
X186.373Y-83.344
X186.373Y-102.394
X186.373Y-121.444
X196.532Y-83.344
X196.532Y-102.394
X196.532Y-121.444
X205.422Y-83.344
X205.422Y-102.394
X205.422Y-121.444
X215.582Y-83.344
X215.582Y-102.394
X215.582Y-121.444
T2
X153.352Y-83.344
X153.352Y-121.444
X153.359Y-102.398
X172.377Y-102.414
X172.403Y-83.344
X172.403Y-121.444
X191.452Y-83.344
X191.452Y-102.394
X191.452Y-121.444
X210.502Y-83.344
X210.502Y-102.394
X210.502Y-121.444
M30
